<svg id="Layer_2" data-name="Layer 2" xmlns="http://www.w3.org/2000/svg" viewBox="0 0 1300.03 1300.45"><polyline points="121.8 99.14 430 32.72 620.41 146.08 452.14 322.32" style="fill:none;stroke:#000;stroke-miterlimit:10;stroke-width:4px"/><polyline points="43.82 250.11 247.72 282.75 375.44 164.77" style="fill:none;stroke:#000;stroke-miterlimit:10;stroke-width:4px"/><polyline points="234.55 442.55 392.05 523.88 565.02 450.57" style="fill:none;stroke:#000;stroke-miterlimit:10;stroke-width:4px"/><line x1="275.21" y1="660.76" x2="392.05" y2="523.88" style="fill:none;stroke:#000;stroke-miterlimit:10;stroke-width:4px"/><polygon points="414.38 783.41 548.83 876.53 664.15 787.76 571.9 630.24 414.38 783.41" style="fill:none;stroke:#000;stroke-miterlimit:10;stroke-width:4px"/><polyline points="79.01 776.63 136.64 969.99 265.69 902.34" style="fill:none;stroke:#000;stroke-miterlimit:10;stroke-width:4px"/><line x1="61.05" y1="1190.5" x2="136.64" y2="969.99" style="fill:none;stroke:#000;stroke-miterlimit:10;stroke-width:4px"/><polyline points="220.99 1266.06 232.84 1093.14 358.35 1156.17 454.5 1003.18 602.64 1084.25" style="fill:none;stroke:#000;stroke-miterlimit:10;stroke-width:4px"/><polyline points="504.04 1171.19 663.94 1284.05 719.07 1171.19 950.27 1145.5" style="fill:none;stroke:#000;stroke-miterlimit:10;stroke-width:4px"/><polyline points="756.12 562.67 884.32 534.53 824.13 735.04" style="fill:none;stroke:#000;stroke-miterlimit:10;stroke-width:4px"/><line x1="1044.18" y1="692.83" x2="884.32" y2="534.53" style="fill:none;stroke:#000;stroke-miterlimit:10;stroke-width:4px"/><polyline points="685.01 987.74 833.96 920.7 850.63 1067.47" style="fill:none;stroke:#000;stroke-miterlimit:10;stroke-width:4px"/><line x1="980.37" y1="824.66" x2="833.96" y2="920.7" style="fill:none;stroke:#000;stroke-miterlimit:10;stroke-width:4px"/><polygon points="1160.15 1067.47 1025.03 971.64 1290.37 1002.76 1160.15 1067.47" style="fill:none;stroke:#000;stroke-miterlimit:10;stroke-width:4px"/><polyline points="1243.28 852.89 1126.17 861.49 1199.87 635.47 1039.77 456.94" style="fill:none;stroke:#000;stroke-miterlimit:10;stroke-width:4px"/><polyline points="951.73 178.91 889.5 361.12 751.5 245.24 732.67 434.42" style="fill:none;stroke:#000;stroke-miterlimit:10;stroke-width:4px"/><line x1="1205.62" y1="175.02" x2="1256.61" y2="21.69" style="fill:none;stroke:#000;stroke-miterlimit:10;stroke-width:4px"/><line x1="1216.03" y1="1230.45" x2="1042.03" y2="1230.45" style="fill:none;stroke:#000;stroke-miterlimit:10;stroke-width:4px"/><circle cx="414.03" cy="783.45" r="15"/><circle cx="571.53" cy="629.95" r="12.5"/><circle cx="664.53" cy="787.95" r="22.5"/><circle cx="548.03" cy="876.45" r="11"/><circle cx="454.53" cy="1002.95" r="17.5"/><circle cx="602.53" cy="1083.95" r="9.5"/><circle cx="504.53" cy="1170.95" r="14.5"/><circle cx="358.03" cy="1156.45" r="10"/><circle cx="233.03" cy="1093.45" r="12"/><circle cx="221.03" cy="1266.45" r="14"/><circle cx="663.53" cy="1283.95" r="8.5"/><circle cx="719.53" cy="1170.95" r="18.5"/><circle cx="950.53" cy="1145.95" r="11.5"/><circle cx="1041.53" cy="1229.95" r="20.5"/><circle cx="1215.53" cy="1229.95" r="8.5"/><circle cx="1160.53" cy="1067.95" r="15.5"/><path d="M0,1020.09a20.21,20.21,0,0,0,10.58-17.78A20.23,20.23,0,0,0,0,984.55" transform="translate(0.03 0.45)"/><path d="M1300,984.55a20.22,20.22,0,1,0,0,35.54" transform="translate(0.03 0.45)"/><circle cx="1025.03" cy="971.45" r="15"/><circle cx="1243.53" cy="852.95" r="13.5"/><circle cx="1126.53" cy="861.95" r="8.5"/><circle cx="1199.53" cy="635.95" r="23.5"/><circle cx="1039.53" cy="456.95" r="10.5"/><circle cx="1044.03" cy="692.45" r="19"/><circle cx="824.53" cy="734.95" r="11.5"/><circle cx="756.53" cy="562.95" r="10.5"/><circle cx="884.53" cy="534.95" r="21.5"/><circle cx="850.53" cy="1067.95" r="13.5"/><circle cx="684.53" cy="987.95" r="16.5"/><circle cx="834.03" cy="920.45" r="19"/><circle cx="980.53" cy="824.95" r="13.5"/><circle cx="61.53" cy="1190.95" r="23.5"/><circle cx="137.03" cy="970.45" r="13"/><circle cx="265.53" cy="901.95" r="17.5"/><circle cx="79.03" cy="776.45" r="12"/><circle cx="275.03" cy="660.45" r="14"/><circle cx="392.53" cy="523.95" r="22.5"/><circle cx="564.53" cy="450.95" r="8.5"/><circle cx="234.53" cy="442.95" r="12.5"/><circle cx="91.03" cy="605.45" r="7"/><circle cx="24.53" cy="431.95" r="23.5"/><circle cx="452.53" cy="321.95" r="22.5"/><circle cx="248.03" cy="282.45" r="15"/><circle cx="43.53" cy="249.95" r="16.5"/><circle cx="375.53" cy="164.95" r="7.5"/><circle cx="620.53" cy="145.95" r="17.5"/><circle cx="430.03" cy="32.45" r="22"/><circle cx="122.03" cy="99.45" r="15"/><circle cx="732.53" cy="433.95" r="13.5"/><circle cx="751.53" cy="244.95" r="13.5"/><circle cx="889.03" cy="361.45" r="17"/><circle cx="952.03" cy="178.45" r="14"/><circle cx="1127.53" cy="280.95" r="17.5"/><circle cx="1215.53" cy="468.95" r="7.5"/><circle cx="1206.03" cy="175.45" r="17"/><circle cx="1256.53" cy="21.95" r="12.5"/><circle cx="1090.53" cy="80.95" r="19.5"/><path d="M819.89,0a26.44,26.44,0,1,0,31.45,0" transform="translate(0.03 0.45)"/><path d="M851.34,1300a26.46,26.46,0,0,0-31.45,0" transform="translate(0.03 0.45)"/><polyline points="890.21 0 826.85 28.45 817.09 28.45 880.45 0"/><polyline points="880.45 1300.45 1041.19 1228.28 1042.83 1231.92 890.21 1300.45"/><line x1="835.64" y1="24.28" x2="1090.96" y2="80.56" style="fill:none;stroke:#000;stroke-miterlimit:10;stroke-width:4px"/><polyline points="1300.03 413.82 1126.6 282.87 1129.01 279.68 1300.03 408.81"/><polyline points="0.46 408.81 27.03 428.86 27.03 433.87 0.46 413.82"/><polyline points="0 437.74 25.25 428.98 26.56 432.76 0 441.98"/><polyline points="1300.03 441.98 1216.09 471.11 1214.78 467.33 1300.03 437.74"/><line x1="91.36" y1="605.78" x2="24.92" y2="433.87" style="fill:none;stroke:#000;stroke-miterlimit:10;stroke-width:4px"/></svg>