<svg xmlns="http://www.w3.org/2000/svg" width="660.877" height="800.692" viewBox="0 0 660.877 800.692">
  <circle id="Ellipse_3" data-name="Ellipse 3" cx="17" cy="17" r="17" transform="translate(0 144)" fill="#f64740"/>
  <circle id="Ellipse_5" data-name="Ellipse 5" cx="35" cy="35" r="35" transform="translate(82 57)" fill="#f64740"/>
  <path id="Polygon_1" data-name="Polygon 1" d="M134.625,85.6c21.934-38.027,76.816-38.027,98.75,0L318.7,233.52c21.919,38-5.507,85.48-49.375,85.48H98.68c-43.868,0-71.294-47.48-49.375-85.48Z" transform="translate(546.558 800.692) rotate(-159)" fill="#f64740"/>
  <path id="Polygon_2" data-name="Polygon 2" d="M78.482,90.107c23.089-40.028,80.859-40.028,103.948,0l26.582,46.086c23.072,40-5.8,89.979-51.974,89.979H103.874c-46.177,0-75.046-49.979-51.974-89.979Z" transform="translate(603 353.666) rotate(166)" fill="#f64740"/>
  <path id="Polygon_3" data-name="Polygon 3" d="M53.883,67.58c17.316-30.021,60.644-30.021,77.961,0L146.8,93.512c17.3,30-4.348,67.484-38.98,67.484H77.905c-34.633,0-56.284-37.484-38.98-67.484Z" transform="matrix(-0.891, 0.454, -0.454, -0.891, 419.938, 143.449)" fill="#f64740"/>
</svg>
