<?xml version="1.0" standalone="no"?>
<!DOCTYPE svg PUBLIC "-//W3C//DTD SVG 20010904//EN"
 "http://www.w3.org/TR/2001/REC-SVG-20010904/DTD/svg10.dtd">
<svg version="1.0" xmlns="http://www.w3.org/2000/svg"
 width="512.000000pt" height="512.000000pt" viewBox="0 0 512.000000 512.000000"
 preserveAspectRatio="xMidYMid meet">
<metadata>
Created by potrace 1.14, written by Peter Selinger 2001-2017
</metadata>
<g transform="translate(0.000000,512.000000) scale(0.100000,-0.100000)"
fill="#000000" stroke="none">
<path d="M1065 5104 c-260 -46 -500 -171 -689 -359 -175 -174 -280 -362 -344
-614 l-27 -106 0 -1465 0 -1465 23 -90 c13 -49 25 -97 27 -106 5 -26 72 -183
95 -225 139 -250 360 -455 609 -564 82 -36 196 -73 264 -86 12 -2 33 -7 47
-11 36 -11 2885 -14 2945 -3 127 22 207 43 300 80 152 60 296 154 409 264 81
81 146 154 146 166 0 4 7 13 15 20 17 14 68 101 108 185 67 139 85 196 112
350 21 120 20 2862 -1 2980 -95 534 -505 948 -1039 1046 -94 17 -182 18 -1510
18 -1164 -1 -1424 -3 -1490 -15z"/>
</g>
</svg>
